<svg xmlns="http://www.w3.org/2000/svg" xmlns:xlink="http://www.w3.org/1999/xlink" width="1920" zoomAndPan="magnify" viewBox="0 0 1440 809.999993" height="1080" preserveAspectRatio="xMidYMid meet" version="1.0"><defs><g/></defs><g fill="#1e3a8a" fill-opacity="0.4"><g transform="translate(134.995677, 312.686234)"><g><path d="M 115.375 0 L 38.109375 0 L 38.109375 -21.171875 L 64.5625 -21.171875 L 64.5625 -177.28125 L 25.40625 -177.28125 L 25.40625 -146.59375 L 5.296875 -146.59375 L 5.296875 -198.453125 L 148.1875 -198.453125 L 148.1875 -146.59375 L 128.078125 -146.59375 L 128.078125 -177.28125 L 88.90625 -177.28125 L 88.90625 -21.171875 L 115.375 -21.171875 Z M 115.375 0 "/></g></g></g><g fill="#1e3a8a" fill-opacity="0.4"><g transform="translate(288.465877, 312.686234)"><g><path d="M 21.171875 -172 L 147.125 -172 L 147.125 -120.125 L 125.953125 -120.125 L 125.953125 -150.828125 L 64.03125 -150.828125 L 64.03125 -96.578125 L 125.953125 -96.578125 L 125.953125 -75.40625 L 64.03125 -75.40625 L 64.03125 -21.171875 L 125.953125 -21.171875 L 125.953125 -51.859375 L 147.125 -51.859375 L 147.125 0 L 21.171875 0 L 21.171875 -21.171875 L 39.6875 -21.171875 L 39.6875 -150.828125 L 21.171875 -150.828125 Z M 21.171875 -172 "/></g></g></g><g fill="#1e3a8a" fill-opacity="0.4"><g transform="translate(456.753905, 312.686234)"><g><path d="M 21.171875 -172 L 127.015625 -172 L 154.53125 -142.890625 L 154.53125 -89.96875 L 127.8125 -61.921875 L 152.421875 -21.171875 L 166.4375 -21.171875 L 166.4375 0 L 119.34375 0 L 119.34375 -21.171875 L 126.75 -21.171875 L 102.9375 -60.859375 L 64.03125 -60.859375 L 64.03125 -21.171875 L 79.90625 -21.171875 L 79.90625 0 L 21.171875 0 L 21.171875 -21.171875 L 39.6875 -21.171875 L 39.6875 -150.828125 L 21.171875 -150.828125 Z M 64.03125 -149.234375 L 64.03125 -83.609375 L 116.421875 -83.609375 L 131.78125 -99.234375 L 131.78125 -133.625 L 116.6875 -149.234375 Z M 64.03125 -149.234375 "/></g></g></g><g fill="#1e3a8a" fill-opacity="0.4"><g transform="translate(641.712003, 312.686234)"><g><path d="M 113.78125 0 L 113.78125 -21.171875 L 131.25 -21.171875 L 119.875 -53.984375 L 53.71875 -53.984375 L 42.34375 -21.171875 L 60.0625 -21.171875 L 60.0625 0 L 3.96875 0 L 3.96875 -21.171875 L 18 -21.171875 L 62.71875 -150.828125 L 51.59375 -150.828125 L 51.59375 -172 L 122.25 -172 L 122.25 -150.828125 L 110.875 -150.828125 L 155.59375 -21.171875 L 169.875 -21.171875 L 169.875 0 Z M 86.796875 -150.03125 L 60.859375 -75.15625 L 112.71875 -75.15625 Z M 86.796875 -150.03125 "/></g></g></g><g fill="#1e3a8a" fill-opacity="0.4"><g transform="translate(815.556731, 312.686234)"><g><path d="M 137.59375 -136.015625 L 115.640625 -136.015625 L 115.640625 -159.296875 L 99.75 -175.703125 L 59.265625 -175.703125 L 45.515625 -161.671875 L 45.515625 -125.15625 L 58.484375 -111.9375 L 113.515625 -111.9375 L 140.25 -83.875 L 140.25 -29.109375 L 112.71875 0 L 46.046875 0 L 18.515625 -29.109375 L 18.515625 -62.453125 L 40.484375 -62.453125 L 40.484375 -39.15625 L 56.625 -22.75 L 102.40625 -22.75 L 115.90625 -36.78125 L 115.90625 -76.203125 L 103.203125 -89.171875 L 48.15625 -89.171875 L 21.171875 -117.484375 L 21.171875 -169.34375 L 48.6875 -198.453125 L 110.078125 -198.453125 L 137.59375 -169.34375 Z M 137.59375 -136.015625 "/></g></g></g><g fill="#1e3a8a" fill-opacity="0.4"><g transform="translate(974.319023, 312.686234)"><g><path d="M 18.515625 -21.171875 L 39.6875 -21.171875 L 39.6875 -150.828125 L 18.515625 -150.828125 L 18.515625 -172 L 85.203125 -172 L 85.203125 -150.828125 L 64.03125 -150.828125 L 64.03125 -21.171875 L 85.203125 -21.171875 L 85.203125 0 L 18.515625 0 Z M 18.515625 -21.171875 "/></g></g></g><g fill="#1e3a8a" fill-opacity="0.4"><g transform="translate(1078.043697, 312.686234)"><g><path d="M 64.03125 -21.171875 L 82.5625 -21.171875 L 82.5625 0 L 21.171875 0 L 21.171875 -21.171875 L 39.6875 -21.171875 L 39.6875 -150.828125 L 21.171875 -150.828125 L 21.171875 -172 L 75.15625 -172 L 125.15625 -46.828125 L 175.171875 -172 L 229.15625 -172 L 229.15625 -150.828125 L 210.625 -150.828125 L 210.625 -21.171875 L 229.15625 -21.171875 L 229.15625 0 L 167.765625 0 L 167.765625 -21.171875 L 186.28125 -21.171875 L 186.28125 -142.09375 L 136.796875 -21.171875 L 113.515625 -21.171875 L 64.03125 -142.09375 Z M 64.03125 -21.171875 "/></g></g></g><g fill="#1e3a8a" fill-opacity="1"><g transform="translate(123.301401, 300.99196)"><g><path d="M 115.375 0 L 38.109375 0 L 38.109375 -21.171875 L 64.5625 -21.171875 L 64.5625 -177.28125 L 25.40625 -177.28125 L 25.40625 -146.59375 L 5.296875 -146.59375 L 5.296875 -198.453125 L 148.1875 -198.453125 L 148.1875 -146.59375 L 128.078125 -146.59375 L 128.078125 -177.28125 L 88.90625 -177.28125 L 88.90625 -21.171875 L 115.375 -21.171875 Z M 115.375 0 "/></g></g></g><g fill="#1e3a8a" fill-opacity="1"><g transform="translate(276.771601, 300.99196)"><g><path d="M 21.171875 -172 L 147.125 -172 L 147.125 -120.125 L 125.953125 -120.125 L 125.953125 -150.828125 L 64.03125 -150.828125 L 64.03125 -96.578125 L 125.953125 -96.578125 L 125.953125 -75.40625 L 64.03125 -75.40625 L 64.03125 -21.171875 L 125.953125 -21.171875 L 125.953125 -51.859375 L 147.125 -51.859375 L 147.125 0 L 21.171875 0 L 21.171875 -21.171875 L 39.6875 -21.171875 L 39.6875 -150.828125 L 21.171875 -150.828125 Z M 21.171875 -172 "/></g></g></g><g fill="#1e3a8a" fill-opacity="1"><g transform="translate(445.05963, 300.99196)"><g><path d="M 21.171875 -172 L 127.015625 -172 L 154.53125 -142.890625 L 154.53125 -89.96875 L 127.8125 -61.921875 L 152.421875 -21.171875 L 166.4375 -21.171875 L 166.4375 0 L 119.34375 0 L 119.34375 -21.171875 L 126.75 -21.171875 L 102.9375 -60.859375 L 64.03125 -60.859375 L 64.03125 -21.171875 L 79.90625 -21.171875 L 79.90625 0 L 21.171875 0 L 21.171875 -21.171875 L 39.6875 -21.171875 L 39.6875 -150.828125 L 21.171875 -150.828125 Z M 64.03125 -149.234375 L 64.03125 -83.609375 L 116.421875 -83.609375 L 131.78125 -99.234375 L 131.78125 -133.625 L 116.6875 -149.234375 Z M 64.03125 -149.234375 "/></g></g></g><g fill="#1e3a8a" fill-opacity="1"><g transform="translate(630.017727, 300.99196)"><g><path d="M 113.78125 0 L 113.78125 -21.171875 L 131.25 -21.171875 L 119.875 -53.984375 L 53.71875 -53.984375 L 42.34375 -21.171875 L 60.0625 -21.171875 L 60.0625 0 L 3.96875 0 L 3.96875 -21.171875 L 18 -21.171875 L 62.71875 -150.828125 L 51.59375 -150.828125 L 51.59375 -172 L 122.25 -172 L 122.25 -150.828125 L 110.875 -150.828125 L 155.59375 -21.171875 L 169.875 -21.171875 L 169.875 0 Z M 86.796875 -150.03125 L 60.859375 -75.15625 L 112.71875 -75.15625 Z M 86.796875 -150.03125 "/></g></g></g><g fill="#1e3a8a" fill-opacity="1"><g transform="translate(803.862455, 300.99196)"><g><path d="M 137.59375 -136.015625 L 115.640625 -136.015625 L 115.640625 -159.296875 L 99.75 -175.703125 L 59.265625 -175.703125 L 45.515625 -161.671875 L 45.515625 -125.15625 L 58.484375 -111.9375 L 113.515625 -111.9375 L 140.25 -83.875 L 140.25 -29.109375 L 112.71875 0 L 46.046875 0 L 18.515625 -29.109375 L 18.515625 -62.453125 L 40.484375 -62.453125 L 40.484375 -39.15625 L 56.625 -22.75 L 102.40625 -22.75 L 115.90625 -36.78125 L 115.90625 -76.203125 L 103.203125 -89.171875 L 48.15625 -89.171875 L 21.171875 -117.484375 L 21.171875 -169.34375 L 48.6875 -198.453125 L 110.078125 -198.453125 L 137.59375 -169.34375 Z M 137.59375 -136.015625 "/></g></g></g><g fill="#1e3a8a" fill-opacity="1"><g transform="translate(962.624748, 300.99196)"><g><path d="M 18.515625 -21.171875 L 39.6875 -21.171875 L 39.6875 -150.828125 L 18.515625 -150.828125 L 18.515625 -172 L 85.203125 -172 L 85.203125 -150.828125 L 64.03125 -150.828125 L 64.03125 -21.171875 L 85.203125 -21.171875 L 85.203125 0 L 18.515625 0 Z M 18.515625 -21.171875 "/></g></g></g><g fill="#1e3a8a" fill-opacity="1"><g transform="translate(1066.349421, 300.99196)"><g><path d="M 64.03125 -21.171875 L 82.5625 -21.171875 L 82.5625 0 L 21.171875 0 L 21.171875 -21.171875 L 39.6875 -21.171875 L 39.6875 -150.828125 L 21.171875 -150.828125 L 21.171875 -172 L 75.15625 -172 L 125.15625 -46.828125 L 175.171875 -172 L 229.15625 -172 L 229.15625 -150.828125 L 210.625 -150.828125 L 210.625 -21.171875 L 229.15625 -21.171875 L 229.15625 0 L 167.765625 0 L 167.765625 -21.171875 L 186.28125 -21.171875 L 186.28125 -142.09375 L 136.796875 -21.171875 L 113.515625 -21.171875 L 64.03125 -142.09375 Z M 64.03125 -21.171875 "/></g></g></g><g fill="#1e3a8a" fill-opacity="0.4"><g transform="translate(71.628605, 682.810711)"><g><path d="M 21.171875 -198.453125 L 133.890625 -198.453125 L 161.40625 -169.34375 L 161.40625 -29.109375 L 133.890625 0 L 21.171875 0 L 21.171875 -21.171875 L 39.6875 -21.171875 L 39.6875 -177.28125 L 21.171875 -177.28125 Z M 64.03125 -22.75 L 123.3125 -22.75 L 137.0625 -36.78125 L 137.0625 -161.671875 L 123.578125 -175.703125 L 64.03125 -175.703125 Z M 64.03125 -22.75 "/></g></g></g><g fill="#1e3a8a" fill-opacity="0.4"><g transform="translate(254.205254, 682.810711)"><g><path d="M 113.78125 0 L 113.78125 -21.171875 L 131.25 -21.171875 L 119.875 -53.984375 L 53.71875 -53.984375 L 42.34375 -21.171875 L 60.0625 -21.171875 L 60.0625 0 L 3.96875 0 L 3.96875 -21.171875 L 18 -21.171875 L 62.71875 -150.828125 L 51.59375 -150.828125 L 51.59375 -172 L 122.25 -172 L 122.25 -150.828125 L 110.875 -150.828125 L 155.59375 -21.171875 L 169.875 -21.171875 L 169.875 0 Z M 86.796875 -150.03125 L 60.859375 -75.15625 L 112.71875 -75.15625 Z M 86.796875 -150.03125 "/></g></g></g><g fill="#1e3a8a" fill-opacity="0.4"><g transform="translate(428.049972, 682.810711)"><g><path d="M 115.375 0 L 38.109375 0 L 38.109375 -21.171875 L 64.5625 -21.171875 L 64.5625 -150.828125 L 28.046875 -150.828125 L 28.046875 -120.125 L 7.9375 -120.125 L 7.9375 -172 L 145.53125 -172 L 145.53125 -120.125 L 125.421875 -120.125 L 125.421875 -150.828125 L 88.90625 -150.828125 L 88.90625 -21.171875 L 115.375 -21.171875 Z M 115.375 0 "/></g></g></g><g fill="#1e3a8a" fill-opacity="0.4"><g transform="translate(581.520188, 682.810711)"><g><path d="M 113.78125 0 L 113.78125 -21.171875 L 131.25 -21.171875 L 119.875 -53.984375 L 53.71875 -53.984375 L 42.34375 -21.171875 L 60.0625 -21.171875 L 60.0625 0 L 3.96875 0 L 3.96875 -21.171875 L 18 -21.171875 L 62.71875 -150.828125 L 51.59375 -150.828125 L 51.59375 -172 L 122.25 -172 L 122.25 -150.828125 L 110.875 -150.828125 L 155.59375 -21.171875 L 169.875 -21.171875 L 169.875 0 Z M 86.796875 -150.03125 L 60.859375 -75.15625 L 112.71875 -75.15625 Z M 86.796875 -150.03125 "/></g></g></g><g fill="#1e3a8a" fill-opacity="0.4"><g transform="translate(755.364886, 682.810711)"><g><path d="M 26.453125 -109.8125 L 108.21875 -109.8125 L 108.21875 -88.640625 L 26.453125 -88.640625 Z M 26.453125 -109.8125 "/></g></g></g><g fill="#1e3a8a" fill-opacity="0.4"><g transform="translate(890.048197, 682.810711)"><g><path d="M 41.015625 -177.28125 L 41.015625 -146.59375 L 19.84375 -146.59375 L 19.84375 -198.453125 L 143.15625 -198.453125 L 143.15625 -177.28125 L 41.8125 -21.171875 L 121.984375 -21.171875 L 121.984375 -51.859375 L 143.15625 -51.859375 L 143.15625 0 L 14.546875 0 L 14.546875 -21.171875 L 115.90625 -177.28125 Z M 41.015625 -177.28125 "/></g></g></g><g fill="#1e3a8a" fill-opacity="0.4"><g transform="translate(1047.752062, 682.810711)"><g><path d="M 48.6875 0 L 21.171875 -29.109375 L 21.171875 -142.890625 L 48.6875 -172 L 123.3125 -172 L 150.828125 -142.890625 L 150.828125 -29.109375 L 123.3125 0 Z M 59.015625 -22.75 L 112.71875 -22.75 L 126.484375 -36.78125 L 126.484375 -135.21875 L 112.984375 -149.234375 L 59.265625 -149.234375 L 45.515625 -135.21875 L 45.515625 -36.78125 Z M 59.015625 -22.75 "/></g></g></g><g fill="#1e3a8a" fill-opacity="0.4"><g transform="translate(1219.744579, 682.810711)"><g><path d="M 48.6875 0 L 21.171875 -29.109375 L 21.171875 -142.890625 L 48.6875 -172 L 123.3125 -172 L 150.828125 -142.890625 L 150.828125 -29.109375 L 123.3125 0 Z M 59.015625 -22.75 L 112.71875 -22.75 L 126.484375 -36.78125 L 126.484375 -135.21875 L 112.984375 -149.234375 L 59.265625 -149.234375 L 45.515625 -135.21875 L 45.515625 -36.78125 Z M 59.015625 -22.75 "/></g></g></g><g fill="#1e3a8a" fill-opacity="1"><g transform="translate(59.93433, 671.116437)"><g><path d="M 21.171875 -198.453125 L 133.890625 -198.453125 L 161.40625 -169.34375 L 161.40625 -29.109375 L 133.890625 0 L 21.171875 0 L 21.171875 -21.171875 L 39.6875 -21.171875 L 39.6875 -177.28125 L 21.171875 -177.28125 Z M 64.03125 -22.75 L 123.3125 -22.75 L 137.0625 -36.78125 L 137.0625 -161.671875 L 123.578125 -175.703125 L 64.03125 -175.703125 Z M 64.03125 -22.75 "/></g></g></g><g fill="#1e3a8a" fill-opacity="1"><g transform="translate(242.510979, 671.116437)"><g><path d="M 113.78125 0 L 113.78125 -21.171875 L 131.25 -21.171875 L 119.875 -53.984375 L 53.71875 -53.984375 L 42.34375 -21.171875 L 60.0625 -21.171875 L 60.0625 0 L 3.96875 0 L 3.96875 -21.171875 L 18 -21.171875 L 62.71875 -150.828125 L 51.59375 -150.828125 L 51.59375 -172 L 122.25 -172 L 122.25 -150.828125 L 110.875 -150.828125 L 155.59375 -21.171875 L 169.875 -21.171875 L 169.875 0 Z M 86.796875 -150.03125 L 60.859375 -75.15625 L 112.71875 -75.15625 Z M 86.796875 -150.03125 "/></g></g></g><g fill="#1e3a8a" fill-opacity="1"><g transform="translate(416.355697, 671.116437)"><g><path d="M 115.375 0 L 38.109375 0 L 38.109375 -21.171875 L 64.5625 -21.171875 L 64.5625 -150.828125 L 28.046875 -150.828125 L 28.046875 -120.125 L 7.9375 -120.125 L 7.9375 -172 L 145.53125 -172 L 145.53125 -120.125 L 125.421875 -120.125 L 125.421875 -150.828125 L 88.90625 -150.828125 L 88.90625 -21.171875 L 115.375 -21.171875 Z M 115.375 0 "/></g></g></g><g fill="#1e3a8a" fill-opacity="1"><g transform="translate(569.825913, 671.116437)"><g><path d="M 113.78125 0 L 113.78125 -21.171875 L 131.25 -21.171875 L 119.875 -53.984375 L 53.71875 -53.984375 L 42.34375 -21.171875 L 60.0625 -21.171875 L 60.0625 0 L 3.96875 0 L 3.96875 -21.171875 L 18 -21.171875 L 62.71875 -150.828125 L 51.59375 -150.828125 L 51.59375 -172 L 122.25 -172 L 122.25 -150.828125 L 110.875 -150.828125 L 155.59375 -21.171875 L 169.875 -21.171875 L 169.875 0 Z M 86.796875 -150.03125 L 60.859375 -75.15625 L 112.71875 -75.15625 Z M 86.796875 -150.03125 "/></g></g></g><g fill="#1e3a8a" fill-opacity="1"><g transform="translate(743.670611, 671.116437)"><g><path d="M 26.453125 -109.8125 L 108.21875 -109.8125 L 108.21875 -88.640625 L 26.453125 -88.640625 Z M 26.453125 -109.8125 "/></g></g></g><g fill="#1e3a8a" fill-opacity="1"><g transform="translate(878.353922, 671.116437)"><g><path d="M 41.015625 -177.28125 L 41.015625 -146.59375 L 19.84375 -146.59375 L 19.84375 -198.453125 L 143.15625 -198.453125 L 143.15625 -177.28125 L 41.8125 -21.171875 L 121.984375 -21.171875 L 121.984375 -51.859375 L 143.15625 -51.859375 L 143.15625 0 L 14.546875 0 L 14.546875 -21.171875 L 115.90625 -177.28125 Z M 41.015625 -177.28125 "/></g></g></g><g fill="#1e3a8a" fill-opacity="1"><g transform="translate(1036.057786, 671.116437)"><g><path d="M 48.6875 0 L 21.171875 -29.109375 L 21.171875 -142.890625 L 48.6875 -172 L 123.3125 -172 L 150.828125 -142.890625 L 150.828125 -29.109375 L 123.3125 0 Z M 59.015625 -22.75 L 112.71875 -22.75 L 126.484375 -36.78125 L 126.484375 -135.21875 L 112.984375 -149.234375 L 59.265625 -149.234375 L 45.515625 -135.21875 L 45.515625 -36.78125 Z M 59.015625 -22.75 "/></g></g></g><g fill="#1e3a8a" fill-opacity="1"><g transform="translate(1208.050304, 671.116437)"><g><path d="M 48.6875 0 L 21.171875 -29.109375 L 21.171875 -142.890625 L 48.6875 -172 L 123.3125 -172 L 150.828125 -142.890625 L 150.828125 -29.109375 L 123.3125 0 Z M 59.015625 -22.75 L 112.71875 -22.75 L 126.484375 -36.78125 L 126.484375 -135.21875 L 112.984375 -149.234375 L 59.265625 -149.234375 L 45.515625 -135.21875 L 45.515625 -36.78125 Z M 59.015625 -22.75 "/></g></g></g></svg>